<mxfile host="app.diagrams.net" agent="Mozilla/5.0 (X11; Ubuntu; Linux x86_64; rv:133.0) Gecko/20100101 Firefox/133.0" version="25.0.3">
  <diagram name="Page-1" id="-Mqs1Dr5-py3yci1nZ4G">
    <mxGraphModel dx="819" dy="409" grid="1" gridSize="10" guides="1" tooltips="1" connect="1" arrows="1" fold="1" page="1" pageScale="1" pageWidth="827" pageHeight="1169" math="0" shadow="0">
      <root>
        <mxCell id="0" />
        <mxCell id="1" parent="0" />
        <mxCell id="eINzgIuend_n-zqg4X1g-13" style="edgeStyle=orthogonalEdgeStyle;rounded=0;orthogonalLoop=1;jettySize=auto;html=1;entryX=0;entryY=0.5;entryDx=0;entryDy=0;strokeWidth=2;" edge="1" parent="1" source="eINzgIuend_n-zqg4X1g-1" target="eINzgIuend_n-zqg4X1g-12">
          <mxGeometry relative="1" as="geometry">
            <Array as="points">
              <mxPoint x="320" y="260" />
              <mxPoint x="320" y="340" />
            </Array>
          </mxGeometry>
        </mxCell>
        <mxCell id="eINzgIuend_n-zqg4X1g-1" value="&lt;font style=&quot;font-size: 16px;&quot;&gt;&lt;b&gt;h&lt;sub&gt;1&lt;/sub&gt;&lt;/b&gt;&lt;/font&gt;" style="rounded=0;whiteSpace=wrap;html=1;strokeWidth=2;fillColor=#fff2cc;strokeColor=#d6b656;" vertex="1" parent="1">
          <mxGeometry x="240" y="240" width="40" height="40" as="geometry" />
        </mxCell>
        <mxCell id="eINzgIuend_n-zqg4X1g-3" style="edgeStyle=orthogonalEdgeStyle;rounded=0;orthogonalLoop=1;jettySize=auto;html=1;entryX=0.5;entryY=1;entryDx=0;entryDy=0;strokeWidth=2;" edge="1" parent="1" source="eINzgIuend_n-zqg4X1g-6" target="eINzgIuend_n-zqg4X1g-1">
          <mxGeometry relative="1" as="geometry" />
        </mxCell>
        <mxCell id="eINzgIuend_n-zqg4X1g-2" value="&lt;font style=&quot;font-size: 16px;&quot;&gt;&lt;b&gt;x&lt;sub&gt;1&lt;/sub&gt;&lt;/b&gt;&lt;/font&gt;" style="rounded=0;whiteSpace=wrap;html=1;strokeWidth=2;fillColor=#f8cecc;strokeColor=#b85450;" vertex="1" parent="1">
          <mxGeometry x="240" y="400" width="40" height="40" as="geometry" />
        </mxCell>
        <mxCell id="eINzgIuend_n-zqg4X1g-5" style="edgeStyle=orthogonalEdgeStyle;rounded=0;orthogonalLoop=1;jettySize=auto;html=1;entryX=0;entryY=0.5;entryDx=0;entryDy=0;strokeWidth=2;" edge="1" parent="1" source="eINzgIuend_n-zqg4X1g-4" target="eINzgIuend_n-zqg4X1g-6">
          <mxGeometry relative="1" as="geometry">
            <Array as="points">
              <mxPoint x="200" y="260" />
              <mxPoint x="200" y="340" />
            </Array>
          </mxGeometry>
        </mxCell>
        <mxCell id="eINzgIuend_n-zqg4X1g-4" value="&lt;font style=&quot;font-size: 16px;&quot;&gt;&lt;b&gt;h&lt;sub&gt;0&lt;/sub&gt;&lt;/b&gt;&lt;/font&gt;" style="rounded=0;whiteSpace=wrap;html=1;strokeWidth=2;fillColor=#fff2cc;strokeColor=#d6b656;" vertex="1" parent="1">
          <mxGeometry x="120" y="240" width="40" height="40" as="geometry" />
        </mxCell>
        <mxCell id="eINzgIuend_n-zqg4X1g-7" value="" style="edgeStyle=orthogonalEdgeStyle;rounded=0;orthogonalLoop=1;jettySize=auto;html=1;entryX=0.5;entryY=1;entryDx=0;entryDy=0;strokeWidth=2;" edge="1" parent="1" source="eINzgIuend_n-zqg4X1g-2" target="eINzgIuend_n-zqg4X1g-6">
          <mxGeometry relative="1" as="geometry">
            <mxPoint x="260" y="400" as="sourcePoint" />
            <mxPoint x="260" y="280" as="targetPoint" />
          </mxGeometry>
        </mxCell>
        <mxCell id="eINzgIuend_n-zqg4X1g-6" value="f" style="ellipse;whiteSpace=wrap;html=1;aspect=fixed;strokeWidth=2;dashed=1;dashPattern=1 1;" vertex="1" parent="1">
          <mxGeometry x="250" y="330" width="20" height="20" as="geometry" />
        </mxCell>
        <mxCell id="eINzgIuend_n-zqg4X1g-19" style="edgeStyle=orthogonalEdgeStyle;rounded=0;orthogonalLoop=1;jettySize=auto;html=1;entryX=0;entryY=0.5;entryDx=0;entryDy=0;strokeWidth=2;" edge="1" parent="1" source="eINzgIuend_n-zqg4X1g-8" target="eINzgIuend_n-zqg4X1g-18">
          <mxGeometry relative="1" as="geometry">
            <Array as="points">
              <mxPoint x="440" y="260" />
              <mxPoint x="440" y="340" />
            </Array>
          </mxGeometry>
        </mxCell>
        <mxCell id="eINzgIuend_n-zqg4X1g-8" value="&lt;font style=&quot;font-size: 16px;&quot;&gt;&lt;b&gt;h&lt;sub&gt;2&lt;/sub&gt;&lt;/b&gt;&lt;/font&gt;" style="rounded=0;whiteSpace=wrap;html=1;strokeWidth=2;fillColor=#fff2cc;strokeColor=#d6b656;" vertex="1" parent="1">
          <mxGeometry x="360" y="240" width="40" height="40" as="geometry" />
        </mxCell>
        <mxCell id="eINzgIuend_n-zqg4X1g-9" style="edgeStyle=orthogonalEdgeStyle;rounded=0;orthogonalLoop=1;jettySize=auto;html=1;entryX=0.5;entryY=1;entryDx=0;entryDy=0;strokeWidth=2;" edge="1" parent="1" source="eINzgIuend_n-zqg4X1g-12" target="eINzgIuend_n-zqg4X1g-8">
          <mxGeometry relative="1" as="geometry" />
        </mxCell>
        <mxCell id="eINzgIuend_n-zqg4X1g-10" value="&lt;font style=&quot;font-size: 16px;&quot;&gt;&lt;b&gt;x&lt;sub&gt;2&lt;/sub&gt;&lt;/b&gt;&lt;/font&gt;" style="rounded=0;whiteSpace=wrap;html=1;strokeWidth=2;fillColor=#f8cecc;strokeColor=#b85450;" vertex="1" parent="1">
          <mxGeometry x="360" y="400" width="40" height="40" as="geometry" />
        </mxCell>
        <mxCell id="eINzgIuend_n-zqg4X1g-11" value="" style="edgeStyle=orthogonalEdgeStyle;rounded=0;orthogonalLoop=1;jettySize=auto;html=1;entryX=0.5;entryY=1;entryDx=0;entryDy=0;strokeWidth=2;" edge="1" parent="1" source="eINzgIuend_n-zqg4X1g-10" target="eINzgIuend_n-zqg4X1g-12">
          <mxGeometry relative="1" as="geometry">
            <mxPoint x="380" y="400" as="sourcePoint" />
            <mxPoint x="380" y="280" as="targetPoint" />
          </mxGeometry>
        </mxCell>
        <mxCell id="eINzgIuend_n-zqg4X1g-12" value="f" style="ellipse;whiteSpace=wrap;html=1;aspect=fixed;strokeWidth=2;dashed=1;dashPattern=1 1;" vertex="1" parent="1">
          <mxGeometry x="370" y="330" width="20" height="20" as="geometry" />
        </mxCell>
        <mxCell id="eINzgIuend_n-zqg4X1g-14" value="&lt;font style=&quot;font-size: 16px;&quot;&gt;&lt;b&gt;h&lt;sub&gt;3&lt;/sub&gt;&lt;/b&gt;&lt;/font&gt;" style="rounded=0;whiteSpace=wrap;html=1;strokeWidth=2;fillColor=#fff2cc;strokeColor=#d6b656;" vertex="1" parent="1">
          <mxGeometry x="480" y="240" width="40" height="40" as="geometry" />
        </mxCell>
        <mxCell id="eINzgIuend_n-zqg4X1g-15" style="edgeStyle=orthogonalEdgeStyle;rounded=0;orthogonalLoop=1;jettySize=auto;html=1;entryX=0.5;entryY=1;entryDx=0;entryDy=0;strokeWidth=2;" edge="1" parent="1" source="eINzgIuend_n-zqg4X1g-18" target="eINzgIuend_n-zqg4X1g-14">
          <mxGeometry relative="1" as="geometry" />
        </mxCell>
        <mxCell id="eINzgIuend_n-zqg4X1g-16" value="&lt;font style=&quot;font-size: 16px;&quot;&gt;&lt;b&gt;x&lt;sub&gt;3&lt;/sub&gt;&lt;/b&gt;&lt;/font&gt;" style="rounded=0;whiteSpace=wrap;html=1;strokeWidth=2;fillColor=#f8cecc;strokeColor=#b85450;" vertex="1" parent="1">
          <mxGeometry x="480" y="400" width="40" height="40" as="geometry" />
        </mxCell>
        <mxCell id="eINzgIuend_n-zqg4X1g-17" value="" style="edgeStyle=orthogonalEdgeStyle;rounded=0;orthogonalLoop=1;jettySize=auto;html=1;entryX=0.5;entryY=1;entryDx=0;entryDy=0;strokeWidth=2;" edge="1" parent="1" source="eINzgIuend_n-zqg4X1g-16" target="eINzgIuend_n-zqg4X1g-18">
          <mxGeometry relative="1" as="geometry">
            <mxPoint x="500" y="400" as="sourcePoint" />
            <mxPoint x="500" y="280" as="targetPoint" />
          </mxGeometry>
        </mxCell>
        <mxCell id="eINzgIuend_n-zqg4X1g-18" value="f" style="ellipse;whiteSpace=wrap;html=1;aspect=fixed;strokeWidth=2;dashed=1;dashPattern=1 1;" vertex="1" parent="1">
          <mxGeometry x="490" y="330" width="20" height="20" as="geometry" />
        </mxCell>
        <mxCell id="eINzgIuend_n-zqg4X1g-20" style="edgeStyle=orthogonalEdgeStyle;rounded=0;orthogonalLoop=1;jettySize=auto;html=1;entryX=0;entryY=0.5;entryDx=0;entryDy=0;strokeWidth=2;" edge="1" parent="1" target="eINzgIuend_n-zqg4X1g-25">
          <mxGeometry relative="1" as="geometry">
            <mxPoint x="520" y="260" as="sourcePoint" />
            <Array as="points">
              <mxPoint x="560" y="260" />
              <mxPoint x="560" y="340" />
            </Array>
          </mxGeometry>
        </mxCell>
        <mxCell id="eINzgIuend_n-zqg4X1g-21" value="&lt;font style=&quot;font-size: 16px;&quot;&gt;&lt;b&gt;h&lt;sub&gt;4&lt;/sub&gt;&lt;/b&gt;&lt;/font&gt;" style="rounded=0;whiteSpace=wrap;html=1;strokeWidth=2;fillColor=#fff2cc;strokeColor=#d6b656;" vertex="1" parent="1">
          <mxGeometry x="600" y="240" width="40" height="40" as="geometry" />
        </mxCell>
        <mxCell id="eINzgIuend_n-zqg4X1g-22" style="edgeStyle=orthogonalEdgeStyle;rounded=0;orthogonalLoop=1;jettySize=auto;html=1;entryX=0.5;entryY=1;entryDx=0;entryDy=0;strokeWidth=2;" edge="1" parent="1" source="eINzgIuend_n-zqg4X1g-25" target="eINzgIuend_n-zqg4X1g-21">
          <mxGeometry relative="1" as="geometry" />
        </mxCell>
        <mxCell id="eINzgIuend_n-zqg4X1g-23" value="&lt;font style=&quot;font-size: 16px;&quot;&gt;&lt;b&gt;x&lt;sub&gt;4&lt;/sub&gt;&lt;/b&gt;&lt;/font&gt;" style="rounded=0;whiteSpace=wrap;html=1;strokeWidth=2;fillColor=#f8cecc;strokeColor=#b85450;" vertex="1" parent="1">
          <mxGeometry x="600" y="400" width="40" height="40" as="geometry" />
        </mxCell>
        <mxCell id="eINzgIuend_n-zqg4X1g-24" value="" style="edgeStyle=orthogonalEdgeStyle;rounded=0;orthogonalLoop=1;jettySize=auto;html=1;entryX=0.5;entryY=1;entryDx=0;entryDy=0;strokeWidth=2;" edge="1" parent="1" source="eINzgIuend_n-zqg4X1g-23" target="eINzgIuend_n-zqg4X1g-25">
          <mxGeometry relative="1" as="geometry">
            <mxPoint x="620" y="400" as="sourcePoint" />
            <mxPoint x="620" y="280" as="targetPoint" />
          </mxGeometry>
        </mxCell>
        <mxCell id="eINzgIuend_n-zqg4X1g-25" value="f" style="ellipse;whiteSpace=wrap;html=1;aspect=fixed;strokeWidth=2;dashed=1;dashPattern=1 1;" vertex="1" parent="1">
          <mxGeometry x="610" y="330" width="20" height="20" as="geometry" />
        </mxCell>
        <mxCell id="eINzgIuend_n-zqg4X1g-27" value="&lt;font color=&quot;#c4a000&quot; style=&quot;font-size: 16px;&quot;&gt;&lt;b&gt;W&lt;sub&gt;hh&lt;/sub&gt;&lt;/b&gt;&lt;/font&gt;" style="text;html=1;align=center;verticalAlign=middle;whiteSpace=wrap;rounded=0;" vertex="1" parent="1">
          <mxGeometry x="200" y="310" width="60" height="30" as="geometry" />
        </mxCell>
        <mxCell id="eINzgIuend_n-zqg4X1g-28" value="&lt;font color=&quot;#ef2929&quot; style=&quot;font-size: 16px;&quot;&gt;&lt;b&gt;W&lt;sub&gt;ih&lt;/sub&gt;&lt;/b&gt;&lt;/font&gt;" style="text;html=1;align=center;verticalAlign=middle;whiteSpace=wrap;rounded=0;" vertex="1" parent="1">
          <mxGeometry x="260" y="350" width="50" height="40" as="geometry" />
        </mxCell>
        <mxCell id="eINzgIuend_n-zqg4X1g-29" value="&lt;font color=&quot;#c4a000&quot; style=&quot;font-size: 16px;&quot;&gt;&lt;b&gt;W&lt;sub&gt;hh&lt;/sub&gt;&lt;/b&gt;&lt;/font&gt;" style="text;html=1;align=center;verticalAlign=middle;whiteSpace=wrap;rounded=0;" vertex="1" parent="1">
          <mxGeometry x="320" y="310" width="60" height="30" as="geometry" />
        </mxCell>
        <mxCell id="eINzgIuend_n-zqg4X1g-30" value="&lt;font color=&quot;#ef2929&quot; style=&quot;font-size: 16px;&quot;&gt;&lt;b&gt;W&lt;sub&gt;ih&lt;/sub&gt;&lt;/b&gt;&lt;/font&gt;" style="text;html=1;align=center;verticalAlign=middle;whiteSpace=wrap;rounded=0;" vertex="1" parent="1">
          <mxGeometry x="380" y="350" width="50" height="40" as="geometry" />
        </mxCell>
        <mxCell id="eINzgIuend_n-zqg4X1g-31" value="&lt;font color=&quot;#c4a000&quot; style=&quot;font-size: 16px;&quot;&gt;&lt;b&gt;W&lt;sub&gt;hh&lt;/sub&gt;&lt;/b&gt;&lt;/font&gt;" style="text;html=1;align=center;verticalAlign=middle;whiteSpace=wrap;rounded=0;" vertex="1" parent="1">
          <mxGeometry x="440" y="310" width="60" height="30" as="geometry" />
        </mxCell>
        <mxCell id="eINzgIuend_n-zqg4X1g-32" value="&lt;font color=&quot;#ef2929&quot; style=&quot;font-size: 16px;&quot;&gt;&lt;b&gt;W&lt;sub&gt;ih&lt;/sub&gt;&lt;/b&gt;&lt;/font&gt;" style="text;html=1;align=center;verticalAlign=middle;whiteSpace=wrap;rounded=0;" vertex="1" parent="1">
          <mxGeometry x="500" y="350" width="50" height="40" as="geometry" />
        </mxCell>
        <mxCell id="eINzgIuend_n-zqg4X1g-33" value="&lt;font color=&quot;#c4a000&quot; style=&quot;font-size: 16px;&quot;&gt;&lt;b&gt;W&lt;sub&gt;hh&lt;/sub&gt;&lt;/b&gt;&lt;/font&gt;" style="text;html=1;align=center;verticalAlign=middle;whiteSpace=wrap;rounded=0;" vertex="1" parent="1">
          <mxGeometry x="560" y="310" width="60" height="30" as="geometry" />
        </mxCell>
        <mxCell id="eINzgIuend_n-zqg4X1g-34" value="&lt;font color=&quot;#ef2929&quot; style=&quot;font-size: 16px;&quot;&gt;&lt;b&gt;W&lt;sub&gt;ih&lt;/sub&gt;&lt;/b&gt;&lt;/font&gt;" style="text;html=1;align=center;verticalAlign=middle;whiteSpace=wrap;rounded=0;" vertex="1" parent="1">
          <mxGeometry x="620" y="350" width="50" height="40" as="geometry" />
        </mxCell>
      </root>
    </mxGraphModel>
  </diagram>
</mxfile>
